<?xml version="1.0" encoding="UTF-8" standalone="no"?>
<!-- Created with Inkscape (http://www.inkscape.org/) -->
<svg
   xmlns:svg="http://www.w3.org/2000/svg"
   xmlns="http://www.w3.org/2000/svg"
   version="1.0"
   width="379.6015"
   height="347.16699"
   id="svg2"
   xml:space="preserve"><defs
     id="defs5" /><path
     d="M 2.3150001,2.3150001 L 2.3150001,344.852 L 377.2865,344.852 L 377.2865,2.3150001 L 2.3150001,2.3150001 z"
     id="Hintergrund"
     style="fill:#feb827;fill-opacity:1;stroke:#feb827;stroke-width:4.63000011;stroke-linecap:butt;stroke-linejoin:miter;stroke-miterlimit:10;stroke-dasharray:none;stroke-opacity:1" /><path
     d="M 229.14285,49.32035 C 229.14285,49.32035 223.74409,49.3251 216.7991,54.7266 L 82.5491,171.2266 C 82.5491,171.2266 78.69109,174.32711 82.5491,177.4141 C 85.6361,180.5011 212.95534,290.07034 212.95535,290.07035 C 212.95535,290.07035 221.44384,298.5391 233.01785,298.5391 C 233.01785,298.5391 297.81685,298.5391 311.70536,298.5391 C 325.59386,298.5391 331.01785,286.20484 331.01786,276.94535 C 331.01786,257.65535 331.01785,69.38284 331.01786,69.38285 C 331.01786,58.57985 322.50836,49.32034 311.70536,49.32035 L 229.14285,49.32035 z M 65.89285,50.0391 C 55.97541,50.37471 47.83035,58.47379 47.83035,68.6016 L 47.83035,277.7266 C 47.05934,288.5296 55.5376,297.7681 67.1116,298.5391 L 147.3616,298.5391 C 156.6211,296.9956 151.9866,287.75785 151.9866,287.75785 C 151.98659,287.75785 80.23185,188.97385 74.83035,181.25785 C 67.88535,172.77085 75.6116,165.82035 75.6116,165.82035 C 75.6116,165.82035 147.3786,68.6111 151.2366,59.3516 C 155.09459,50.0921 145.0491,50.1016 145.0491,50.1016 L 67.89285,50.1016 C 67.21776,50.05333 66.55401,50.01672 65.89285,50.0391 z"
     id="rot"
     style="fill:#ed1b2d;fill-opacity:1;fill-rule:nonzero;stroke:none" /><path
     d="M 121.89285,150.41411 L 121.89285,199.00785 L 135.7991,199.00785 L 135.7991,174.32036 L 151.2366,199.00785 L 167.4241,199.00785 L 148.9241,172.00785 L 165.89285,150.41411 L 150.45535,150.41411 L 135.7991,170.44535 L 135.7991,150.41411 L 121.89285,150.41411 z M 229.9241,151.16411 L 229.9241,164.28911 C 227.6081,162.74561 224.54234,162.75785 221.45535,162.75785 C 208.33785,162.75785 204.45535,171.22736 204.45535,181.25786 C 204.45535,191.28836 209.11034,200.5391 221.45535,200.5391 C 225.31335,200.5391 228.3996,199.00985 231.4866,196.69535 L 232.2366,199.00785 L 242.26785,199.00785 L 242.26785,151.16411 L 229.9241,151.16411 z M 284.70535,151.16411 L 284.70535,199.00785 L 297.0491,199.00785 L 297.0491,181.25786 L 307.8616,199.00785 L 320.98661,199.00785 L 307.8616,176.63285 L 319.4241,162.75785 L 307.08035,162.75785 L 297.0491,175.1016 L 297.0491,151.16411 L 284.70535,151.16411 z M 182.8616,161.9766 C 169.74411,161.97663 163.58035,168.16136 163.58035,180.50786 C 163.58035,191.30936 166.6586,200.5391 182.8616,200.5391 C 196.75011,200.5391 202.14285,192.08186 202.14285,180.50786 C 202.14285,166.61786 195.2081,161.9766 182.8616,161.9766 z M 248.45535,162.75785 L 248.45535,173.5391 L 257.70535,173.5391 C 257.70535,171.22461 260.0261,169.69535 263.1116,169.69535 C 267.7406,169.69536 268.49685,170.46236 269.26785,174.32036 L 255.39285,177.41411 C 249.22035,178.95761 245.3616,184.3476 245.3616,188.9766 C 245.36159,194.3781 249.2081,200.5391 256.9241,200.5391 C 263.09659,200.5391 268.5056,196.7076 270.0491,195.1641 L 270.0491,199.00785 L 280.8616,199.00785 L 280.8616,172.00785 C 280.86161,165.06435 273.89885,162.75785 266.95535,162.75785 L 248.45535,162.75785 z M 182.8616,169.69535 C 189.03561,169.69536 189.0491,177.42086 189.0491,180.50786 C 189.0491,184.36586 189.0356,192.07035 182.8616,192.07035 C 175.91811,192.07035 175.9241,184.36586 175.9241,180.50786 C 175.92409,178.19186 175.9181,169.69535 182.8616,169.69535 z M 223.76785,170.44535 C 229.16785,170.44535 229.9241,174.31286 229.9241,181.25786 C 229.9241,183.57236 229.94036,192.8516 223.76785,192.8516 C 216.82285,192.8516 216.79909,183.57236 216.7991,181.25786 C 216.7991,178.94336 216.82286,170.44536 223.76785,170.44535 z M 268.51785,180.50786 C 268.51785,180.50786 269.28885,184.3496 268.51785,186.6641 C 268.51785,189.75111 265.41735,192.07035 262.33035,192.07035 C 259.24484,192.07035 256.9241,190.53236 256.9241,187.44536 C 256.92409,184.35985 260.0071,182.82035 261.5491,182.82035 C 262.3201,182.04785 266.97435,180.50786 268.51785,180.50786 z"
     id="Kodak"
     style="fill:#feb827;fill-opacity:1;fill-rule:nonzero;stroke:none" /></svg>